<svg viewBox="0 0 64 62" width="64" height="62" xmlns="http://www.w3.org/2000/svg" xmlns:xlink="http://www.w3.org/1999/xlink" xml:space="preserve" overflow="hidden"><g transform="translate(-377 -19)"><path d="M409.164 19C412.922 19 415.992 22.09 415.992 25.8778 415.992 29.6656 412.932 32.7556 409.164 32.7556 405.397 32.7556 402.336 29.6656 402.336 25.8778 402.336 22.09 405.407 19 409.164 19" fill="#39A900"/><path d="M384.305 41.1884 384.305 41.2183C384.285 41.3379 384.275 41.4177 384.275 41.4675 384.275 41.8264 384.474 42.0855 384.873 42.265 385.282 42.4344 385.9 42.5241 386.747 42.5241 387.395 42.5241 387.893 42.4543 388.262 42.3148 388.631 42.1752 388.81 41.9759 388.81 41.7267 388.81 41.3479 388.082 41.0489 386.647 40.8096 386.478 40.7797 386.348 40.7598 386.268 40.7498 386.179 40.7299 386.039 40.71 385.86 40.6801 383.567 40.3013 382.092 39.8926 381.434 39.454 381.115 39.2347 380.876 38.9855 380.706 38.6965 380.547 38.4074 380.467 38.0785 380.467 37.7096 380.467 36.8125 380.995 36.1248 382.052 35.6563 383.109 35.1878 384.654 34.9486 386.677 34.9486 388.7 34.9486 390.166 35.1678 391.133 35.6064 392.1 36.045 392.578 36.7228 392.578 37.6399L392.578 37.7495 388.78 37.7495 388.78 37.7096C388.78 37.3907 388.591 37.1614 388.202 36.992 387.813 36.8325 387.255 36.7428 386.508 36.7428 385.929 36.7428 385.481 36.8026 385.182 36.9122 384.863 37.0318 384.713 37.1913 384.713 37.4006 384.713 37.7794 385.541 38.1084 387.195 38.3675 387.514 38.4174 387.764 38.4572 387.943 38.4871 389.119 38.6865 389.966 38.8559 390.465 38.9955 390.963 39.135 391.392 39.3045 391.761 39.4939 392.159 39.7132 392.478 39.9923 392.698 40.3312 392.917 40.6701 393.027 41.0389 393.027 41.4476 393.027 42.3746 392.448 43.0823 391.302 43.5907 390.156 44.0891 388.501 44.3383 386.348 44.3383 384.195 44.3383 382.67 44.099 381.723 43.6206 380.766 43.1421 380.298 42.3746 380.298 41.308L380.298 41.1685 384.305 41.1685ZM394.711 44.1987 394.711 35.0881 405.546 35.0881 405.546 37.0518 398.778 37.0518 398.778 38.5071 405.028 38.5071 405.028 40.4508 398.778 40.4508 398.778 42.2151 405.795 42.2151 405.795 44.2087 394.711 44.2087ZM407.5 44.1987 407.5 35.0881 412.643 35.0881 418.155 41.2084 418.155 35.0881 422.063 35.0881 422.063 44.1987 416.72 44.1987 411.387 38.0585 411.387 44.1987 407.49 44.1987ZM432.569 40.5604 430.625 37.2511 428.572 40.5604 432.579 40.5604ZM426.369 44.1987 422.292 44.1987 428.592 35.0881 433.107 35.0881 439.118 44.1987 434.592 44.1987 433.675 42.554 427.366 42.554 426.389 44.1987Z" fill="#39A900"/><path d="M389.309 76.3351 385.67 72.9161 396.735 53.6881C397.333 52.6415 396.585 51.3257 395.379 51.3257L377.267 51.3257 377.267 46.5113 406.413 46.5113 389.309 76.3351Z" fill="#39A900"/><path d="M428.701 76.3351 432.34 72.9161 421.275 53.6881C420.677 52.6415 421.425 51.3257 422.631 51.3257L440.743 51.3257 440.743 46.5113 411.597 46.5113 428.701 76.3351Z" fill="#39A900"/><path d="M408.965 51.5949C408.965 51.5949 409.005 51.5251 409.005 51.5251L425.432 78.7174 421.066 80.99 410.48 63.2373C409.852 62.1907 408.347 62.1907 407.729 63.2373 404.2 69.1981 397.213 80.99 397.213 80.99L392.947 78.8768C392.947 78.8768 408.088 53.09 408.965 51.5949" fill="#39A900"/></g></svg>